<svg xmlns="http://www.w3.org/2000/svg" version="1.1" xmlns:xlink="http://www.w3.org/1999/xlink" xmlns:svgjs="http://svgjs.dev/svgjs" width="1500" height="1687" viewBox="0 0 1500 1687"><g transform="matrix(1,0,0,1,2.2737367544323206e-13,0)"><svg viewBox="0 0 320 360" data-background-color="#ffffff" preserveAspectRatio="xMidYMid meet" height="1687" width="1500" xmlns="http://www.w3.org/2000/svg" xmlns:xlink="http://www.w3.org/1999/xlink"><g id="tight-bounds" transform="matrix(1,0,0,1,-5.684341886080802e-14,0)"><svg viewBox="0 0 320 360" height="360" width="320"><g><svg></svg></g><g><svg viewBox="0 0 320 360" height="360" width="320"><g><path d="M85.508 32.884c0-1.117 0.558-2.233 1.675-2.233 1.117 0 2.233 0.558 2.234 2.233 0.558 0 1.675 0 2.233-0.558 2.233 0 4.467-0.558 6.141 0 1.675 0.558 2.792 0.558 4.467 1.117 1.675 0.558 2.792 0 3.908-0.559 2.233-0.558 3.908-1.675 6.141-2.233 1.117-0.558 1.675-0.558 2.792-0.558 1.117-0.558 2.233-0.558 3.908-1.117 2.792-0.558 5.583-1.117 7.817-2.233 2.233-1.117 4.467-1.117 6.699-1.675 1.117 0 1.675-0.558 2.792-1.117 0.558 0 0.558-0.558 1.116-1.116 1.117-0.558 1.675-1.117 2.792-0.559 0.558 0.558 1.675 0.558 2.233 0h0.559c3.35 0 6.7-0.558 10.608 0 0.558 0 1.117 0 1.116 0 1.675-1.117 3.908-1.117 6.142-1.116 0.558 0 1.675 0 2.233 0h0.558c2.233 0 4.467 0 6.142 0.558 1.675 0 2.792 0.558 4.466 1.117 1.675 0 2.792 0 4.467 0.558 1.117 0 2.233 0 3.35 0 0.558 0 1.117 0 1.116 0 2.233 0.558 4.467 0.558 6.7 0.558 1.675 0.558 3.35 1.117 5.583 1.117 0.558 0 1.117 0 1.675 0 0.558 0 1.117 0.558 1.675 0.558l0.558 0.559c2.233 0 3.908 1.117 6.142 1.116 0.558 0 1.675 0 2.233 0.559 1.675 1.117 3.908 1.675 6.141 1.675 1.117 0 1.675 0.558 2.234 1.116 1.675 0.558 2.792 1.117 4.466 1.675 1.117 0.558 2.233 0 3.35 0.558 1.675 0.558 3.908 1.117 5.583 2.792 1.117 1.117 2.233 1.117 3.908 2.233 0.558 0 1.117 0.558 1.675 1.117 1.675 1.117 3.35 2.233 5.025 2.791 0.558 0 1.117 0.558 1.675 0.559 1.675 1.117 3.35 2.792 5.583 3.908 1.117 0.558 1.675 1.117 2.792 1.675h0.558c1.675 1.675 3.908 2.792 5.583 4.466 1.675 1.675 2.792 2.792 5.025 3.909 0 0 0 0 0 0.558 0.558 1.117 1.117 1.675 2.233 2.233 1.117 0.558 1.675 1.117 2.234 1.675 1.675 1.117 3.35 2.233 4.466 3.35 0.558 0.558 1.117 1.117 2.233 2.233 0.558 0.558 1.117 1.117 1.675 1.117 2.233 0.558 3.35 2.233 5.025 3.908 1.117 1.117 2.792 2.792 3.908 3.908 0.558 0.558 1.117 1.675 1.675 2.792 1.117 3.35 2.792 6.7 4.467 9.491 0 0 0 0.558 0.558 1.117v0.558c1.117 1.117 1.675 2.792 2.792 3.908 0.558 0.558 0.558 1.117 1.116 1.675 1.117 1.675 1.675 3.908 2.792 5.583 1.675 2.792 2.792 5.583 3.908 8.375v0.558c0.558 1.117 1.117 2.233 1.675 3.908 0 1.117 1.117 2.233 1.675 3.909 0.558 2.792 2.233 5.583 2.791 8.933 0 0.558 0.558 1.117 0.559 2.233 0.558 1.675 1.117 3.35 1.675 5.025 0 0.558 0.558 1.117 1.116 1.675 1.117 1.117 1.117 2.233 1.117 3.35-0.558 2.233 0 4.467 0.558 6.699 0 0.558 0 1.117 0 2.234 0.558 2.233 1.117 5.025 1.117 7.258 0 0.558 0 1.675 0 2.233 0 1.675 0.558 3.35 1.675 5.025 0 0.558 0.558 0.558 0.558 0.558 0.558 0.558 1.117 1.675 1.675 2.233 0.558 0.558 0.558 0.558 1.117 1.117 1.117 1.117 1.675 2.233 1.675 3.908 0 0.558-0.558 1.675-0.559 2.233 0 0.558 0 1.675 0.559 2.234 0.558 0.558 0.558 1.117 0.558 1.675 0 0.558-0.558 1.117-1.117 1.116v0c-0.558 1.675-2.792 2.233-3.35 3.908-0.558 2.233-1.117 4.467-1.674 6.7-0.558 1.675-0.558 2.792-0.559 4.467 0 1.675-0.558 2.792-0.558 4.466-0.558 2.233-1.117 4.467-1.675 6.7 0 1.117-0.558 2.233-0.558 3.35 0.558 0.558 1.117 1.117 1.675 1.116 1.117 1.117 2.233 2.233 3.349 3.35 0.558 0.558 0.558 1.117 0 1.117-0.558 0.558-1.117 0.558-1.674 0.558-0.558-0.558-1.675-1.117-2.234-1.116-0.558-0.558-1.675-1.117-2.791-0.559 0 1.117-0.558 2.233-0.559 2.792-0.558 1.117-1.117 2.792-1.116 3.908-0.558 2.233-1.675 3.908-2.233 6.142-1.117 2.792-2.233 5.025-3.35 7.258-0.558 1.117-1.117 2.233-1.675 3.35v0c0 1.675-1.675 3.35-2.234 5.024-1.117 2.233-2.233 4.467-3.349 7.258-0.558 1.117-1.117 2.233-1.675 2.792-1.117 2.792-2.233 5.025-3.909 7.258-1.117 1.675-2.233 2.792-3.349 3.35-1.117 1.117-2.233 2.233-3.35 3.35-0.558 0.558-1.117 1.117-1.675 1.675-0.558 0.558-0.558 0.558-1.117 1.116-1.117 1.675-2.792 2.792-3.908 4.467-1.117 1.117-1.675 2.233-3.35 3.35-1.117 1.117-2.233 2.792-3.908 3.35-0.558 0.558-1.117 1.675-1.675 2.233-0.558 0.558-1.117 1.675-1.675 2.233 0 1.117 0.558 2.233 0.558 2.792 0 1.675-1.675 2.233-2.791 1.116-1.675-1.117-1.675-1.117-3.35 0-1.675 1.117-3.35 2.792-5.583 3.35-0.558 0-0.558 0.558-1.117 0.559-1.117 0.558-1.675 1.675-2.792 2.233-1.117 1.117-2.792 1.675-3.908 2.791-0.558 0.558-1.117 0.558-1.675 1.117-1.675 1.117-3.35 1.675-5.024 3.35-0.558 0.558-1.117 0.558-1.675 1.117 0 0.558 0 0.558 0 1.116 0 1.117-1.117 2.233-2.792 1.675-1.675-0.558-2.792 0-4.466 0-1.675 0.558-3.35 1.675-5.025 2.233-0.558 0-1.117 0.558-1.675 1.117-1.675 1.117-3.35 1.675-5.025 2.233-1.117 0-2.233 1.117-3.35 1.117-0.558 0-1.117 0.558-1.675 0.558h-0.558c-2.233 1.675-4.467 2.792-6.7 4.467-0.558 0-0.558 0.558-1.117 1.116-0.558 1.117-1.117 1.675-2.233 1.675-2.792 0-3.908 2.233-3.35 4.467 0 0.558 0.558 1.117 0.559 1.675 0.558 1.117 0 2.233-0.559 2.791-0.558 0.558-2.233 0.558-2.791-0.558-1.117-1.117-1.675-2.233-2.234-3.908-0.558-1.117-1.675-2.233-2.791-2.792-1.117-0.558-2.233-0.558-3.35 0-0.558 0-0.558 0.558-1.117 0.558-1.117 1.117-2.792 1.675-4.466 1.117-0.558 0-1.675 0-1.675 0.558-0.558 0.558-0.558 1.675 0 2.234 1.117 1.117 0.558 2.233 0.558 3.908 0 2.233-1.675 3.35-3.908 2.233-0.558-0.558-1.117-0.558-1.675-1.117-0.558 0-0.558-0.558-0.558-1.116-0.558-0.558-0.558-1.675-1.117-2.792-1.117 0.558-2.233 0.558-3.35 1.117-0.558 0-1.117 0.558-1.675 0.558-1.675 0-2.233 0-2.791-1.675-0.558-1.675-1.675-1.675-2.792-2.233-2.233-0.558-5.025-0.558-7.258-1.675h-0.558c-2.233-1.675-4.467-1.675-7.258-1.675-1.675 0-3.35 0.558-5.025 0.558-1.675 0-2.792 0.558-3.908 1.675-0.558 0.558-1.117 1.117-1.675 1.117-0.558-0.558-0.558-1.117-1.117-1.675v-0.558c0-0.558-0.558-1.117-1.116-0.559-1.117 0.558-2.233-0.558-3.35-1.116-0.558-0.558-1.675-1.675-1.675-2.792-0.558-0.558-1.117-1.117-1.675-1.116-1.117 0-2.792-0.558-3.908-0.559-0.558 0-1.117 0-1.117-0.558-0.558-0.558-1.117-0.558-2.233-0.558-0.558 0-0.558-0.558-1.117-0.559 1.117 1.117 1.675 2.233 2.233 3.35 0 0.558 0.558 0.558 0.559 1.117 0.558 1.117 0 1.675-1.675 1.675-1.117 0-1.117 0-1.675 0.558 0 1.117 0 1.675 0 2.792 0 0.558 0 1.117-1.117 1.675 0 0-0.558 0-0.558 0.558-0.558 0.558-0.558 1.117 0 1.675 1.675 1.117 2.792 1.675 4.466 2.233 1.675 0 1.675 1.117 2.234 2.233 0.558 1.117 0 1.675-0.559 2.792-1.117 1.117-2.233 2.233-3.35 3.35-1.675 0.558-2.792 2.233-4.466 2.233-1.117 0-2.233-0.558-2.792-1.675-0.558-2.792-0.558-5.025 0.559-7.816 0-0.558 0.558-1.117 0-1.675-5.025 0-5.025-1.117-5.025-1.675 0-1.117 0.558-1.675 0.558-2.792 0.558-1.117 0-1.675-1.675-2.233-0.558 0-1.117 0-1.675 0-0.558 0-0.558-0.558-1.675-0.558 1.117-0.558 1.675-0.558 2.792-1.117-0.558-2.233-1.117-3.908-2.792-5.025-0.558-0.558-1.117-1.117-1.116-2.233 0-1.675-1.117-2.792-1.675-3.908-1.117-1.675-3.35-2.233-5.025-2.233-1.675-0.558-2.792-0.558-4.467-1.117-1.675-0.558-3.35-2.233-5.024-2.792-0.558-0.558-1.117-1.117-2.234-1.674-2.233-1.117-3.908-2.792-5.583-4.467-1.117-0.558-1.675-1.675-2.791-2.233-1.117-1.117-1.675-2.233-2.792-2.792-1.117-1.117-2.233-2.233-3.908-3.35-1.675-1.117-2.792-2.792-4.467-4.466-1.117-1.675-2.792-2.792-4.466-3.908-0.558 0-1.117 0-1.675 0-0.558 0-1.117 0.558-1.675 0.558-1.675 0.558-2.792 1.675-4.467 2.233 0.558-0.558 0.558-0.558 0-1.675-0.558-0.558-1.117-1.117-1.674-1.116-1.117 0-2.233 0-3.35 0-2.233 0-4.467 0.558-6.7 0.558-1.675 0-3.908 0.558-5.583 1.117 0.558 1.117 0.558 1.675 1.116 2.791-1.117 0.558-2.233 0.558-3.35 0.558-0.558 0-1.675 0.558-2.233 1.117-0.558 0-0.558 0.558-1.116 0-1.117-0.558-2.233 0-3.35 0.558h-0.559c0 0 0-0.558 0.559-0.558 0.558-0.558 1.117-1.117 1.675-1.675 0.558-0.558 1.117-0.558 2.233-1.117-0.558-0.558-0.558-1.117-0.558-1.116-0.558-0.558-1.117-0.558-1.675 0-0.558 0.558-1.117 1.117-1.675 1.675-0.558 0.558-1.117 0.558-1.675 0-0.558-0.558-0.558-1.117 0-1.675 0-0.558 0.558-1.117 1.116-1.675 0.558-0.558 0.558-1.117 1.117-1.675-1.117-1.117-1.675-2.233-2.792-2.792-1.675-1.117-3.35-2.792-4.466-4.466-1.117-2.233-2.792-3.908-5.025-5.025-0.558-0.558-1.117-1.117-1.675-1.675-0.558-0.558-0.558-0.558-1.116-1.117-1.675 0.558-2.792 1.675-4.467 2.234-0.558 0-0.558 0.558-1.117 1.116-0.558 1.117-1.675 1.117-2.791 1.117-0.558 0-1.117-0.558-0.558-1.117 0.558-1.117 1.117-2.233 2.791-1.675 0 0 0.558 0 0.558-0.558 1.117-1.117 2.233-2.792 3.909-3.908-0.558-1.675-1.675-2.792-2.234-3.908-0.558-0.558-0.558-1.117-0.558-2.234 0-0.558 0-0.558-0.558-1.116 0 0-0.558 0-1.117 0.558-0.558 0.558-1.675 1.117-2.791 0 0-0.558 0-1.117 0.558-1.675l0.558-0.558c1.675-0.558 1.675-2.233 1.675-3.908v-0.559c-0.558-1.117-0.558-1.675 0.558-2.791 1.675-1.117 3.35-3.35 3.909-5.025 0.558-1.117 1.675-1.675 2.791-2.792 1.117-1.117 2.233-2.233 2.792-3.908h0.558c2.233 0.558 2.792-1.117 3.908-2.791 0-0.558 0-1.117 0.559-1.117 1.117-1.117 1.117-2.233 0.558-3.908 0-0.558-0.558-1.675-0.558-2.233 0-0.558 0-0.558-0.559-1.117-1.675-1.117-1.675-2.233 0-3.35 1.117-0.558 1.117-1.675 1.675-2.233 0.558-1.117 0.558-2.233 0.559-3.908-0.558-1.675-0.558-3.908-1.117-5.583-0.558-2.233-1.117-5.025-1.675-7.259 0-0.558 0-0.558 0-1.116 0-1.675 0-2.792-0.558-4.467-0.558-0.558-0.558-1.675-0.559-2.233-0.558-1.675-1.117-2.792-2.791-3.35-1.675-1.117-3.908-1.675-5.583-2.791-0.558-0.558-1.117 0-1.675 0.558-0.558 1.117-1.675 2.233-2.234 3.35-0.558 0.558-1.117 1.675-1.675 2.791-1.117 1.117-3.35 2.233-5.024 0.559-0.558-1.117-1.117-1.675 0-2.792 1.117-1.675 2.233-3.35 3.908-4.466 0.558-0.558 1.117-1.675 1.675-2.234 0.558-1.117 0.558-2.233 0.558-3.35-0.558-2.233-1.117-4.467-1.117-7.258 0-2.792 0-5.025 0.559-7.816 0.558-1.117 0.558-2.792 1.116-3.908 0-0.558 0.558-1.675 1.117-2.233 1.117-1.117 2.233-2.233 2.792-3.909 0.558-1.675 1.675-3.35 1.675-5.024 0-0.558 0.558-1.117 0.558-1.675 0-0.558 0.558-1.675 0.558-2.234-0.558-1.675 0-2.792 0.558-3.908 0.558-1.117 1.117-2.792 1.675-3.908 1.117-2.233 1.117-5.025 3.35-7.258 0.558-1.117 1.117-2.233 1.675-3.35 0.558-2.233 1.675-3.908 2.792-5.583 0.558-0.558 0.558-0.558 0.558-1.117 0.558-1.675 1.675-3.35 2.792-5.025 1.117-1.675 1.117-3.35 1.675-5.024 0-0.558 0-1.117 0.558-1.675 1.675-1.675 1.117-3.908 0.558-6.142-1.117-2.792-1.675-5.583-1.116-8.374 0-0.558 0-1.117 0.558-1.117 0.558-1.117 0.558-1.675 1.117-2.792v-0.558c1.117-1.117 2.233-2.792 3.908-3.35 2.233-1.117 4.467-1.675 7.258-2.233 2.233 0 4.467-1.117 6.141-3.35 0-0.558 0.558-0.558 1.117-1.117l0.558-0.558c0.558-1.117 1.117-1.675 1.675-2.233 1.117-1.117 2.233-2.792 3.35-3.908 1.117-1.117 2.233-2.792 3.908-4.467l0.559-0.558c1.117-1.117 2.233-2.233 3.349-2.792 1.117-1.117 2.233-2.233 3.35-3.35 1.117-1.117 1.675-2.233 2.792-3.35 1.117-0.558 2.233-1.675 3.35-2.791 1.117-1.117 2.233-2.233 2.791-2.792 1.117-1.117 2.792-2.233 3.909-2.791 1.117-0.558 2.233-1.117 2.791-2.792 0.558-1.675 1.117-2.792 1.675-4.466 0-1.117 0.558-2.233 1.117-3.35 0.558 0 1.117 0 2.233-0.558-0.558-0.558-1.117-0.558-1.117-1.117 0-0.558 0.558-1.117 0.559-1.117 0-0.558 0.558-1.117 0.558-1.675 0 0 0.558 0 0.558-0.558 0 0 0.558 0 0.559-0.558-1.117 0.558-1.675 0-2.234-0.559 0.558 0.558 1.117 0.558 2.234 1.117 0 0 0.558 0 0.558-0.558 0-0.558 0-1.117 0-1.117 0 0-0.558 0-1.117 0-0.558 0-1.117 0.558-1.675 0.558zM182.097 295.292c0-0.558-0.558-0.558-0.559-1.117-0.558-1.117 0-1.675 0.559-2.233 0.558-0.558 1.117-0.558 2.233-0.558 1.117 0.558 1.675 1.117 1.675 2.233 0 0.558 0 1.675 0 2.233 0.558 2.233 0.558 2.233 2.791 2.233 1.117 0 2.233 0 3.35 0 2.233-0.558 4.467-1.675 6.7-2.233 2.233-0.558 4.467-1.117 6.7-1.675 0.558 0 1.117 0 2.233 0 2.233 0.558 3.908 0 5.583-1.117 0.558-0.558 1.675-0.558 2.233-1.116 1.117-0.558 2.233-0.558 3.35-1.117 2.792-1.675 5.583-2.792 7.817-4.466 1.675-1.117 3.35-2.233 5.024-3.35 1.675-1.117 3.35-2.233 5.025-3.35 1.117-0.558 2.792-1.675 3.908-2.792 2.233-1.675 3.908-3.35 6.142-4.466 1.117-0.558 1.675-1.117 2.233-1.675 1.117-0.558 1.675-1.675 2.792-2.233 0.558-0.558 1.117-1.117 2.233-1.675 0.558-0.558 0.558-0.558 0.558-1.117 1.675-1.117 3.35-3.35 4.467-5.025 1.117-1.117 2.233-2.233 3.35-3.908 1.675-1.675 2.792-3.908 4.466-6.141 1.117-1.117 2.233-2.792 2.792-3.909 1.117-2.233 2.233-4.467 3.908-6.141v-0.558c1.117-2.233 2.233-4.467 3.35-6.7 1.675-2.792 2.792-6.141 4.466-8.933 0.558-1.117 1.117-2.233 1.117-3.35 1.117-2.233 1.675-4.467 2.233-6.7 0-0.558 0-0.558 0.559-1.116 1.675-3.35 2.792-6.7 3.349-10.608 0.558-2.233 1.117-4.467 1.675-6.7 1.117-3.35 1.117-6.141 1.675-9.491 0.558-2.233 0.558-5.025 0.559-7.258 0.558-3.35 0.558-7.258 0-10.608 0-2.792-0.558-6.141-0.559-8.933 0-2.792-0.558-5.025-1.116-7.817-0.558-2.792-1.117-5.025-1.675-7.816-1.117-2.233-1.675-4.467-2.234-7.258-0.558-2.233-1.675-3.908-1.674-6.142 0-1.675-0.558-3.35-2.234-3.908-1.675-0.558-2.792-1.117-4.466-2.233-3.35-2.233-5.025-5.025-4.467-8.375 0-1.675 0.558-3.908 1.117-5.583 0.558-1.675 1.117-3.35 0-4.467-0.558-1.675-1.675-2.792-2.233-3.908-1.117-1.675-1.675-2.792-2.792-3.908-1.117-2.233-2.233-4.467-3.908-6.141-2.233-2.792-3.908-5.583-6.7-7.817l-0.558-0.558c-1.675-2.233-3.35-4.467-5.583-6.142-1.117-1.117-2.233-2.233-3.35-2.791-0.558-0.558-1.117-1.117-2.233-1.675-1.675-1.117-3.35-1.675-4.467-2.792-1.675-1.675-3.908-2.792-5.583-3.908 0 0-0.558 0-0.558-0.558-2.233-1.117-3.908-1.675-6.142-2.792-2.233-1.117-4.467-1.675-6.7-1.675-0.558 0-0.558 0-1.116 0-0.558-0.558-1.675-0.558-2.233-0.558-0.558 0-0.558 0-1.117 0-1.117-0.558-2.792 0-3.908 0-2.233 0.558-4.467 0.558-6.7-0.558-2.792-1.117-5.025-2.233-7.258-3.35-1.675-1.117-2.792-2.233-4.467-3.35-3.35-2.792-6.7-6.141-10.608-8.933 0.558-2.792-0.558-3.35-2.791-3.35-1.117 0-2.233 0.558-3.35 1.117-0.558 0.558-0.558 0.558-1.117 1.116-1.675 1.117-2.792 2.792-4.466 3.909-2.792 1.675-3.908 1.117-6.142 0-0.558-0.558-1.117-1.117-1.675-1.675-1.117-1.117-2.233-2.792-2.791-3.909-1.117-2.233-3.35-2.233-5.583-2.233-1.117 0-2.792 0.558-3.908 0.558-2.233 0-4.467 1.117-5.584 2.792-1.117 1.675-2.233 3.35-3.908 5.025-0.558 0.558-1.675 1.117-2.233 2.233-1.117 1.117-2.233 1.117-3.35 0-0.558-0.558-1.117-0.558-1.675-1.117-0.558 0.558-1.117 1.117-1.117 1.675-0.558 1.117-1.117 2.233-1.674 3.909-0.558 1.675-1.675 3.35-2.792 4.466-0.558 0.558-0.558 0.558-1.117 1.117-0.558 1.117-2.233 1.675-3.35 1.675-1.117 1.117-2.233 2.792-2.791 3.908-0.558 1.117-1.117 2.233-1.675 3.908-0.558 0.558-0.558 1.675-1.117 2.233-0.558 1.117-0.558 1.675-0.558 2.792 0.558 1.675-0.558 2.233-2.233 2.791-1.117 0-1.117 0-1.675 1.117 0 1.675 0.558 2.792 1.116 4.467 0.558 0.558 1.117 1.675 1.117 2.233 0 1.117 0.558 1.675 1.675 2.233 0.558 0.558 1.117 1.117 1.675 1.117 0.558 0 0.558 0.558 1.117 0.558 0.558 0.558 1.117 0 1.116-0.558 0.558-1.675 1.117-3.35 1.117-5.025 0.558-2.233 0.558-3.908 1.116-6.142 0.558-1.117 1.117-1.675 1.675-2.233 0 0 0.558 0 1.117 0v0.559c-0.558 2.792-1.675 6.141-2.233 8.933-0.558 1.117-0.558 2.233-1.117 3.349 0 0.558-0.558 1.117-1.116 1.117-1.117 0.558-2.233 1.117-3.35 1.117-0.558 0-1.117 0-1.675 0-1.117-0.558-2.233-1.675-3.35-2.234-0.558-0.558-1.117-1.117-1.675-1.674-0.558-1.117-1.117-2.233-1.675-3.35-0.558-1.117-1.117-1.675-2.233-2.234-0.558-0.558-1.117-0.558-1.675-1.116-1.117-1.117-2.233-1.675-3.908-1.675-0.558 0-1.675 0-2.234 0-0.558 0-1.675 0.558-2.233 1.116-1.117 0.558-1.675 0.558-2.791 0-2.792-1.117-5.583-0.558-8.375 0.559-1.117 0.558-2.233 1.117-3.35 1.116-2.792 0-5.025 0-7.816 0-2.792 0-5.025-0.558-7.817-1.116-1.117 0-2.233 0-3.35 0-2.233 0.558-2.792 2.233-2.233 4.466 0.558 2.233 1.117 5.025 1.117 7.258 0 1.675 0 3.35 0 5.025 0 1.117 0 1.675 0 2.792 0 1.675-0.558 3.35-0.559 5.025-0.558 3.35-2.233 6.141-4.466 8.374-1.675 1.675-3.908 3.35-6.142 3.908-1.117 0.558-2.233 1.117-3.908 1.675-2.792 1.117-5.025 3.35-6.7 6.142-0.558 1.117-1.117 2.233-1.674 3.35-1.117 1.675-1.675 2.792-2.792 4.466-0.558 1.117-1.675 2.233-2.233 3.35-0.558 1.117-1.675 1.675-1.675 2.792-1.117 2.233-1.675 4.467-2.792 6.699-0.558 1.117-0.558 2.792-1.116 3.909-1.117 2.233-1.117 4.467-1.117 7.258 0 0.558 0 1.117 0 2.233 0 2.792-0.558 6.141-0.558 8.933 0 2.792 0 5.583 0.558 8.375 0 1.117 0 2.792 0 3.908 0 2.233 0.558 5.025 0.558 7.258 0 2.233 0 5.025 1.117 7.258v0.558c0.558 2.233 0.558 4.467 1.116 6.7 0 0.558 0 1.117 0.559 1.675 1.117 3.35 1.675 6.141 2.791 9.491 0.558 2.233 1.675 4.467 2.234 6.7 0.558 2.233 2.792 4.467 3.349 7.258v0c1.675 3.35 3.35 6.7 5.584 10.05 0.558 1.117 1.675 2.233 2.233 3.35 1.117 1.675 1.675 3.35 2.791 4.466 0.558 1.117 1.675 2.233 2.234 2.792 0.558 1.117 1.117 2.233 2.233 3.35 1.117 1.117 2.233 2.792 3.35 3.908 1.675 2.792 3.908 5.025 6.141 6.7 1.117 1.117 2.233 1.675 3.35 2.791 0.558 0.558 1.117 0.558 1.117 1.117 0.558 0.558 1.117 1.117 2.233 1.675 4.467 2.233 7.816 5.583 11.725 8.933 1.675 1.675 3.35 3.35 5.583 4.466 2.233 1.675 3.908 3.35 6.7 3.908 0 0 0.558 0 0.558 0.559 1.117 1.117 2.792 1.675 3.908 2.233 2.233 1.117 5.025 2.233 7.258 3.35 0.558 0.558 1.675 0.558 2.233 1.117 1.675 0.558 3.35 1.117 5.025 1.674 1.675 0.558 2.792 1.117 4.467 1.117h0.558c1.117 0.558 1.675 0.558 2.792 0 0.558 0 1.117 0 1.116 0.558 0 0.558 0.558 0.558 1.117 0.559 0.558 0 1.117 0 2.233 0 0.558-0.558 0.558-1.117 1.117-2.234 0.558 0.558 1.117 0.558 1.116 0.559 0.558 1.117 1.675 1.117 2.792 1.116h0.558c1.117 0 1.675 0 2.233-0.558 0-0.558 1.117-0.558 1.675-0.558 1.675 0.558 3.35 0.558 5.025 1.116 1.117 0.558 2.792 0.558 3.35-0.558 0.558-0.558 1.117-1.117 2.233-0.558 1.117 0.558 1.675 0.558 2.792 0 0.558 0 1.117 0 1.117 0 1.675 0.558 2.792 0.558 4.466 1.116 2.233 0.558 2.233 0.558 3.908-1.116 0.558-0.558 1.675-0.558 2.233 0 0.558 1.117 0.558 1.675 0.559 2.791 0.558 0 0.558 0 1.116-0.558 0-1.117 0.558-1.117 1.675-1.675 0.558 0.558 0.558 0.558 1.117 0.558 1.117 1.117 1.675 1.117 2.233-0.558 0-0.558 0-1.117 0.559-1.116 0.558 0 1.117 0.558 1.116 0.558 0.558 1.117 1.675 1.675 2.233 2.791 1.117 1.117 2.792 1.117 3.35 0 0.558-0.558 1.117-0.558 1.675-0.558 0-0.558 0-1.117 0-1.675 1.675 1.117 1.117 1.117 0.559 1.117zM89.417 34.559c1.675 0.558 2.792 0.558 3.349-0.558-1.117 0.558-2.233-0.558-3.349 0.558z" fill="#ed2647" fill-rule="nonzero" stroke="none" stroke-width="1" stroke-linecap="butt" stroke-linejoin="miter" stroke-miterlimit="10" stroke-dasharray="" stroke-dashoffset="0" font-family="none" font-weight="none" font-size="none" text-anchor="none" style="mix-blend-mode: normal" data-fill-palette-color="tertiary"></path></g><g transform="matrix(1,0,0,1,64,114.28077308429623)"><svg viewBox="0 0 192 131.43845383140754" height="131.43845383140754" width="192"><g><svg viewBox="0 0 192 131.43845383140754" height="131.43845383140754" width="192"><g><svg viewBox="0 0 192 131.43845383140754" height="131.43845383140754" width="192"><g><svg viewBox="0 0 192 131.43845383140754" height="131.43845383140754" width="192"><g id="textblocktransform"><svg viewBox="0 0 192 131.43845383140754" height="131.43845383140754" width="192" id="textblock"><g><svg viewBox="0 0 192 94.85884101040119" height="94.85884101040119" width="192"><g transform="matrix(1,0,0,1,0,0)"><svg width="192" viewBox="2.25 -33.25 67.3 33.25" height="94.85884101040119" data-palette-color="#ed2647"><path d="M24.1 0L9.6 0 9.6-0.8 14.6-2.8 14.6-30.25 6.45-30.25 3.05-22.9 2.25-22.9 2.25-33 31.45-33 31.45-22.9 30.65-22.9 27.25-30.25 19.1-30.25 19.1-2.8 24.1-0.8 24.1 0ZM46.15 0L35.35 0 35.35-0.8 38.55-2.45 51.35-33.25 53.6-33.25 66.2-2.6 69.55-0.8 69.55 0 57.15 0 57.15-0.8 61.55-2.5 57.8-11.75 45.65-11.75 41.95-2.5 46.15-0.8 46.15 0ZM51.75-26.8L46.8-14.5 56.7-14.5 51.75-26.8Z" opacity="1" transform="matrix(1,0,0,1,0,0)" fill="#ed2647" class="wordmark-text-0" data-fill-palette-color="primary" id="text-0"></path></svg></g></svg></g><g transform="matrix(1,0,0,1,0,117.25273676077266)"><svg viewBox="0 0 192 14.18571707063487" height="14.18571707063487" width="192"><g transform="matrix(1,0,0,1,0,0)"><svg width="192" viewBox="3.5 -43.65 769.38 56.849999999999994" height="14.18571707063487" data-palette-color="#ca3433"><path d="M38.1-40.2L38.1-27.7 36.6-27.2 29.95-37.05 23.85-37.05 23.85-3.8 29.1-2 28.1 0 12.9 0 12.9-1.55 17.6-5.25 17.6-37.05 11.65-37.05 5-27.2 3.5-27.7 3.5-40.2 6.2-39.3 35.4-39.3 38.1-40.2ZM54.65-27.05Q57.95-27.05 60.57-25.33 63.2-23.6 64.67-20.65 66.15-17.7 66.15-14.15L66.15-14.15Q66.15-10.3 63.8-6.93 61.45-3.55 57.92-1.53 54.4 0.5 51.1 0.5L51.1 0.5Q47.8 0.5 45.17-1.23 42.55-2.95 41.07-5.9 39.6-8.85 39.6-12.4L39.6-12.4Q39.6-16.25 41.95-19.63 44.3-23 47.82-25.03 51.35-27.05 54.65-27.05L54.65-27.05ZM51.75-22.85Q46.1-22.85 46.1-14.8L46.1-14.8Q46.1-10.05 48.15-6.88 50.2-3.7 54-3.7L54-3.7Q59.65-3.7 59.65-11.8L59.65-11.8Q59.65-16.5 57.6-19.68 55.55-22.85 51.75-22.85L51.75-22.85ZM103.6-2L102.6 0 93.1 0 93.1-3.6 88.45 0.1Q86.85 0.5 84.6 0.5L84.6 0.5Q81.3 0.5 78.67-1.23 76.05-2.95 74.57-5.9 73.1-8.85 73.1-12.4L73.1-12.4Q73.1-16.25 75.45-19.63 77.8-23 81.32-25.03 84.85-27.05 88.15-27.05L88.15-27.05Q90.9-27.05 93.15-25.5L93.15-25.5 93.15-35.8 88.7-38.9 88.7-40.45 97.25-43.65 99.15-43.65 99.15-3.75 103.6-2ZM87.15-3.75Q88.65-3.75 90.02-4.17 91.4-4.6 93.1-5.8L93.1-5.8 93.1-17.2Q92.8-19.7 90.77-21.28 88.75-22.85 85.25-22.85L85.25-22.85Q79.6-22.85 79.6-14.8L79.6-14.8Q79.6-10.1 81.55-6.93 83.5-3.75 87.15-3.75L87.15-3.75ZM123.44-27.05Q126.74-27.05 129.37-25.33 131.99-23.6 133.47-20.65 134.94-17.7 134.94-14.15L134.94-14.15Q134.94-10.3 132.59-6.93 130.24-3.55 126.72-1.53 123.19 0.5 119.89 0.5L119.89 0.5Q116.59 0.5 113.97-1.23 111.34-2.95 109.87-5.9 108.39-8.85 108.39-12.4L108.39-12.4Q108.39-16.25 110.74-19.63 113.09-23 116.62-25.03 120.14-27.05 123.44-27.05L123.44-27.05ZM120.54-22.85Q114.89-22.85 114.89-14.8L114.89-14.8Q114.89-10.05 116.94-6.88 118.99-3.7 122.79-3.7L122.79-3.7Q128.44-3.7 128.44-11.8L128.44-11.8Q128.44-16.5 126.39-19.68 124.34-22.85 120.54-22.85L120.54-22.85ZM195.54-26.55L195.54-25 184.39 0 180.59 0 175.39-12.75 168.94 0 165.14 0 157.34-19.05 152.69-21.75 152.69-23.3 161.24-27.5 163.14-19.95 169.24-5.1 174.14-15.65 172.74-19.05 168.09-21.75 168.09-23.3 176.64-27.5 178.54-19.95 184.49-5.5 190.49-19.5 183.54-24.55 184.54-26.55 195.54-26.55ZM213.04-2L212.04 0 198.09 0 198.09-1.55 202.54-5.05 202.54-19.65 198.09-22.75 198.09-24.3 206.64-27.5 208.54-27.5 208.54-3.75 213.04-2ZM205.34-42.5Q206.84-42.5 207.81-41.4 208.79-40.3 208.79-38.65L208.79-38.65Q208.79-37.5 208.09-36.48 207.39-35.45 206.34-34.85 205.29-34.25 204.29-34.25L204.29-34.25Q202.79-34.25 201.81-35.35 200.84-36.45 200.84-38.1L200.84-38.1Q200.84-39.25 201.54-40.28 202.24-41.3 203.29-41.9 204.34-42.5 205.34-42.5L205.34-42.5ZM231.48-2L230.48 0 216.53 0 216.53-1.55 220.98-5.05 220.98-35.8 216.53-38.9 216.53-40.45 225.08-43.65 226.98-43.65 226.98-3.75 231.48-2ZM249.93-2L248.93 0 234.98 0 234.98-1.55 239.43-5.05 239.43-35.8 234.98-38.9 234.98-40.45 243.53-43.65 245.43-43.65 245.43-3.75 249.93-2ZM295.43-2L294.43 0 284.93 0 284.93-4.35 279.27 0.1Q278.27 0.5 276.77 0.5L276.77 0.5Q272.48 0.5 270.55-1.65 268.63-3.8 268.63-6.8L268.63-6.8Q268.63-8.6 269.93-10.35 271.23-12.1 273.63-13.65L273.63-13.65 284.93-13.65 284.93-16.85Q284.93-20.1 283.2-21.45 281.48-22.8 278.48-22.8L278.48-22.8Q275.38-22.8 270.88-19.05L270.88-19.05 269.38-20.95 276.57-26.65Q278.57-27.05 281.38-27.05L281.38-27.05Q285.93-27.05 288.43-24.83 290.93-22.6 290.93-18.35L290.93-18.35 290.93-3.75 295.43-2ZM278.38-3.75Q281.43-3.75 284.93-6.55L284.93-6.55 284.93-11.6 276.07-11.6Q275.43-10.8 275.15-10 274.88-9.2 274.88-8.25L274.88-8.25Q274.88-6.4 275.82-5.08 276.77-3.75 278.38-3.75L278.38-3.75ZM313.37-2L312.37 0 298.42 0 298.42-1.55 302.87-5.05 302.87-35.8 298.42-38.9 298.42-40.45 306.97-43.65 308.87-43.65 308.87-3.75 313.37-2ZM358.27-26.55L358.27-25 347.12 0 343.32 0 338.12-12.75 331.67 0 327.87 0 320.07-19.05 315.42-21.75 315.42-23.3 323.97-27.5 325.87-19.95 331.97-5.1 336.87-15.65 335.47-19.05 330.82-21.75 330.82-23.3 339.37-27.5 341.27-19.95 347.22-5.5 353.22-19.5 346.27-24.55 347.27-26.55 358.27-26.55ZM388.87-2L387.87 0 378.37 0 378.37-4.35 372.72 0.1Q371.72 0.5 370.22 0.5L370.22 0.5Q365.92 0.5 363.99-1.65 362.07-3.8 362.07-6.8L362.07-6.8Q362.07-8.6 363.37-10.35 364.67-12.1 367.07-13.65L367.07-13.65 378.37-13.65 378.37-16.85Q378.37-20.1 376.64-21.45 374.92-22.8 371.92-22.8L371.92-22.8Q368.82-22.8 364.32-19.05L364.32-19.05 362.82-20.95 370.02-26.65Q372.02-27.05 374.82-27.05L374.82-27.05Q379.37-27.05 381.87-24.83 384.37-22.6 384.37-18.35L384.37-18.35 384.37-3.75 388.87-2ZM371.82-3.75Q374.87-3.75 378.37-6.55L378.37-6.55 378.37-11.6 369.52-11.6Q368.87-10.8 368.59-10 368.32-9.2 368.32-8.25L368.32-8.25Q368.32-6.4 369.27-5.08 370.22-3.75 371.82-3.75L371.82-3.75ZM419.26-26.55L419.26-25 406.62 0 396.22 13.2 394.31 11.7Q397.17 8.65 398.64 6.35 400.12 4.05 400.72 1.73 401.31-0.6 401.31-3.8L401.31-3.8 395.01-19.05 390.37-21.75 390.37-23.3 398.92-27.5 400.81-19.95 406.92-5.05 413.97-19.7 407.31-24.55 408.31-26.55 419.26-26.55ZM439.96-5.4Q439.96-6.8 438.41-7.98 436.86-9.15 433.66-10.8L433.66-10.8Q431.06-12.15 429.46-13.15 427.86-14.15 426.74-15.48 425.61-16.8 425.61-18.35L425.61-18.35Q425.61-20.15 427.11-22.2 428.61-24.25 430.81-25.65 433.01-27.05 434.91-27.05L434.91-27.05Q437.21-27.05 440.24-26.48 443.26-25.9 444.61-25.2L444.61-25.2 444.61-17.5 442.71-17.5Q441.11-20.6 439.01-22.33 436.91-24.05 434.71-24.05L434.71-24.05Q433.16-24.05 432.21-23.23 431.26-22.4 431.26-21.15L431.26-21.15Q431.26-19.6 432.89-18.38 434.51-17.15 437.81-15.5L437.81-15.5Q440.36-14.2 441.91-13.25 443.46-12.3 444.54-11.03 445.61-9.75 445.61-8.2L445.61-8.2Q445.61-6.35 444.04-4.33 442.46-2.3 440.19-0.9 437.91 0.5 436.01 0.5L436.01 0.5Q433.56 0.5 430.19-0.08 426.81-0.65 425.36-1.35L425.36-1.35 425.36-9.05 427.26-9.05Q429.01-5.95 431.41-4.23 433.81-2.5 436.26-2.5L436.26-2.5Q437.91-2.5 438.94-3.35 439.96-4.2 439.96-5.4L439.96-5.4ZM483.81-27Q485.46-27 486.71-26.1 487.96-25.2 488.66-23.6L488.66-23.6 485.36-19.45 483.46-19.45Q483.26-20.7 482.73-21.23 482.21-21.75 481.31-21.75L481.31-21.75Q480.21-21.75 478.98-21.18 477.76-20.6 476.21-19L476.21-19 476.21-4.1 483.21-1.95 482.21 0.05 465.76 0.05 465.76-1.5 470.21-5 470.21-19.15 465.76-21.75 465.76-23.3 474.31-27.5 475.86-21.35 481.06-26.65Q482.11-27.05 483.81-27.05L483.81-27.05 483.81-27ZM517.61-6.9L508.75 0.1Q506.75 0.5 503.95 0.5L503.95 0.5Q500.65 0.5 498.03-1.23 495.4-2.95 493.93-5.9 492.45-8.85 492.45-12.4L492.45-12.4Q492.45-16.25 494.81-19.63 497.15-23 500.68-25.03 504.2-27.05 507.5-27.05L507.5-27.05Q512.25-27.05 514.88-23.3 517.5-19.55 517.5-13.4L517.5-13.4 499-13.4Q499.31-9.15 501.33-6.45 503.35-3.75 506.85-3.75L506.85-3.75Q510.1-3.75 516.11-8.8L516.11-8.8 517.61-6.9ZM504.6-22.85Q499.2-22.85 498.95-15.45L498.95-15.45 510.65-15.45Q510.2-18.15 509.73-19.58 509.25-21 508.08-21.93 506.9-22.85 504.6-22.85L504.6-22.85ZM571.85-2L570.85 0 561.35 0 561.35-16.85Q561.35-19.6 560.5-20.7 559.65-21.8 557.45-21.8L557.45-21.8Q555.9-21.8 554.4-21.23 552.9-20.65 550.85-18.95L550.85-18.95 550.85-3.75 555.35-2 554.35 0 544.85 0 544.85-16.85Q544.85-19.6 544-20.7 543.15-21.8 540.95-21.8L540.95-21.8Q539.4-21.8 537.9-21.23 536.4-20.65 534.35-18.95L534.35-18.95 534.35-3.75 538.85-2 537.85 0 523.9 0 523.9-1.55 528.35-5.05 528.35-19.2 523.9-21.8 523.9-23.35 532.45-27.55 534.05-21.15 540.7-26.7Q541.75-27.1 543.45-27.1L543.45-27.1Q546.35-27.1 548.25-25.53 550.15-23.95 550.65-21.2L550.65-21.2 557.15-26.65Q558.2-27.05 559.9-27.05L559.9-27.05Q563.3-27.05 565.3-24.98 567.3-22.9 567.3-19.35L567.3-19.35 567.3-3.75 571.85-2ZM590.75-2L589.75 0 575.8 0 575.8-1.55 580.25-5.05 580.25-19.65 575.8-22.75 575.8-24.3 584.35-27.5 586.25-27.5 586.25-3.75 590.75-2ZM583.05-42.5Q584.55-42.5 585.52-41.4 586.5-40.3 586.5-38.65L586.5-38.65Q586.5-37.5 585.8-36.48 585.1-35.45 584.05-34.85 583-34.25 582-34.25L582-34.25Q580.5-34.25 579.52-35.35 578.55-36.45 578.55-38.1L578.55-38.1Q578.55-39.25 579.25-40.28 579.95-41.3 581-41.9 582.05-42.5 583.05-42.5L583.05-42.5ZM627.2-1.95L626.2 0.05 616.7 0.05 616.7-16.8Q616.7-19.55 615.85-20.65 615-21.75 612.8-21.75L612.8-21.75Q611.15-21.75 609.52-21.15 607.9-20.55 605.7-18.85L605.7-18.85 605.7-3.7 610.2-1.95 609.2 0.05 595.25 0.05 595.25-1.5 599.7-5 599.7-19.15 595.25-21.75 595.25-23.3 603.8-27.5 605.45-21 612.55-26.65Q613.6-27.05 615.3-27.05L615.3-27.05Q618.7-27.05 620.7-24.98 622.7-22.9 622.7-19.35L622.7-19.35 622.7-3.75 627.2-1.95ZM662.39-2L661.39 0 651.89 0 651.89-3.6 647.24 0.1Q645.64 0.5 643.39 0.5L643.39 0.5Q640.09 0.5 637.47-1.23 634.84-2.95 633.37-5.9 631.89-8.85 631.89-12.4L631.89-12.4Q631.89-16.25 634.24-19.63 636.59-23 640.12-25.03 643.64-27.05 646.94-27.05L646.94-27.05Q649.69-27.05 651.94-25.5L651.94-25.5 651.94-35.8 647.49-38.9 647.49-40.45 656.04-43.65 657.94-43.65 657.94-3.75 662.39-2ZM645.94-3.75Q647.44-3.75 648.82-4.17 650.19-4.6 651.89-5.8L651.89-5.8 651.89-17.2Q651.59-19.7 649.57-21.28 647.54-22.85 644.04-22.85L644.04-22.85Q638.39-22.85 638.39-14.8L638.39-14.8Q638.39-10.1 640.34-6.93 642.29-3.75 645.94-3.75L645.94-3.75ZM706.79-26.55L706.79-25 694.14 0 683.74 13.2 681.84 11.7Q684.69 8.65 686.16 6.35 687.64 4.05 688.24 1.73 688.84-0.6 688.84-3.8L688.84-3.8 682.54-19.05 677.89-21.75 677.89-23.3 686.44-27.5 688.34-19.95 694.44-5.05 701.49-19.7 694.84-24.55 695.84-26.55 706.79-26.55ZM725.69-27.05Q728.99-27.05 731.61-25.33 734.24-23.6 735.71-20.65 737.19-17.7 737.19-14.15L737.19-14.15Q737.19-10.3 734.84-6.93 732.49-3.55 728.96-1.53 725.44 0.5 722.14 0.5L722.14 0.5Q718.84 0.5 716.21-1.23 713.59-2.95 712.11-5.9 710.64-8.85 710.64-12.4L710.64-12.4Q710.64-16.25 712.99-19.63 715.34-23 718.86-25.03 722.39-27.05 725.69-27.05L725.69-27.05ZM722.79-22.85Q717.14-22.85 717.14-14.8L717.14-14.8Q717.14-10.05 719.19-6.88 721.24-3.7 725.04-3.7L725.04-3.7Q730.69-3.7 730.69-11.8L730.69-11.8Q730.69-16.5 728.64-19.68 726.59-22.85 722.79-22.85L722.79-22.85ZM772.88-2L771.88 0 762.38 0 762.38-5.2 756.03 0.1Q754.98 0.5 753.28 0.5L753.28 0.5Q749.88 0.5 747.88-1.58 745.88-3.65 745.88-7.2L745.88-7.2 745.88-19.15 741.43-21.75 741.43-23.3 749.98-27.5 751.88-27.5 751.88-9.7Q751.88-6.95 752.73-5.85 753.58-4.75 755.78-4.75L755.78-4.75Q757.33-4.75 758.83-5.33 760.33-5.9 762.38-7.6L762.38-7.6 762.38-19.15 757.93-21.75 757.93-23.3 766.48-27.5 768.38-27.5 768.38-3.75 772.88-2Z" opacity="1" transform="matrix(1,0,0,1,0,0)" fill="#ca3433" class="slogan-text-1" data-fill-palette-color="secondary" id="text-1"></path></svg></g></svg></g></svg></g></svg></g><g></g></svg></g></svg></g></svg></g></svg></g><defs></defs></svg><rect width="320" height="360" fill="none" stroke="none" visibility="hidden"></rect></g></svg></g></svg>